# xmcd
#
# Track frame offsets:
#	150
#	17311
#	32160
#	50039
#	69497
#	90750
#	108031
#	127930
#	147098
#	165190
#	184314
#	200219
#	217455
#	233422
#	248752
#	264659
#	280083
#	295954
#	313156
#	330037
#	346944
#
# Disc length: 4869 seconds
#
# Revision: 1
# Processed by: cddbd v1.5.2PL0 Copyright (c) Steve Scherf et al.
# Submitted via: audiograbber 1.83.01
#
DISCID=27130315
DTITLE=Various Dome 44 - The Dome Vol. 44
DYEAR=07
DGENRE=
TTITLE0=Plain White T's Hey There Delilah
TTITLE1=Colbie Cailat Bubbly
TTITLE2=Take Theat Rule The World
TTITLE3=Ich Und Ich Stark
TTITLE4=Nicole Scherzinger Feat. Will I. Am Baby Love
TTITLE5=Tommy Reeve On My Mind
TTITLE6=Lafee Wer Bin Ich
TTITLE7=Killerpilze Letze Minute
TTITLE8=Tarja I Walk Alon
TTITLE9=Nickelback Rockstar
TTITLE10=Empty Trash Limited
TTITLE11=Cinema Bizarre Escape To The Stars
TTITLE12=Dave Gahan Kingdom
TTITLE13=David Bisbal Ave Maria 2007
TTITLE14=Orson Ain't No Party
TTITLE15=Mars Where Did We Go Wrong
TTITLE16=John Schlönvoigt Superhelden Sterben Nicht
TTITLE17=No Angels Amaze Me
TTITLE18=Zascha Moktan Ouch!!!
TTITLE19=Popstars On Stage Never Give Up
TTITLE20=Befour Hand In Hand
EXTD=
EXTT0=
EXTT1=
EXTT2=
EXTT3=
EXTT4=
EXTT5=
EXTT6=
EXTT7=
EXTT8=
EXTT9=
EXTT10=
EXTT11=
EXTT12=
EXTT13=
EXTT14=
EXTT15=
EXTT16=
EXTT17=
EXTT18=
EXTT19=
EXTT20=
PLAYORDER=
